<?xml version="1.0" encoding="UTF-8"?>
<svg xmlns="http://www.w3.org/2000/svg" viewBox="0 0 54 36">
  <rect width="54" height="36" fill="#b22234"/>
  <g fill="#fff">
    <rect y="4" width="54" height="4"/>
    <rect y="12" width="54" height="4"/>
    <rect y="20" width="54" height="4"/>
    <rect y="28" width="54" height="4"/>
  </g>
  <rect width="21.6" height="19.2" fill="#3c3b6e"/>
  <g fill="#fff" transform="scale(0.6)">
    <g transform="translate(2.5,3.2)">
      <g id="star-row">
        <polygon points="5,0 6.5,4.5 11,4.5 7.4,7.3 8.9,11.8 5,9 1.1,11.8 2.6,7.3 -1,4.5 3.5,4.5"/>
      </g>
      <g transform="translate(7.5,0)"><use href="#star-row"/></g>
      <g transform="translate(15,0)"><use href="#star-row"/></g>
      <g transform="translate(22.5,0)"><use href="#star-row"/></g>
    </g>
    <g transform="translate(6.25,8.8)">
      <g id="star-row-offset">
        <polygon points="5,0 6.5,4.5 11,4.5 7.4,7.3 8.9,11.8 5,9 1.1,11.8 2.6,7.3 -1,4.5 3.5,4.5"/>
      </g>
      <g transform="translate(7.5,0)"><use href="#star-row-offset"/></g>
      <g transform="translate(15,0)"><use href="#star-row-offset"/></g>
    </g>
    <g transform="translate(2.5,14.4)"><use href="#star-row"/></g>
    <g transform="translate(6.25,20)"><use href="#star-row-offset"/></g>
    <g transform="translate(2.5,25.6)"><use href="#star-row"/></g>
  </g>
</svg>
