<?xml version="1.0" encoding="UTF-8"?>
<svg xmlns="http://www.w3.org/2000/svg" viewBox="0 0 54 36">
  <defs>
    <polygon id="star" fill="#fff" points="0,-1 0.2245,-0.309 0.9511,-0.309 0.3633,0.118 0.5878,0.809 0,0.382 -0.5878,0.809 -0.3633,0.118 -0.9511,-0.309 -0.2245,-0.309"/>
  </defs>
  <rect width="54" height="36" fill="#b22234"/>
  <g fill="#fff">
    <rect y="2.7692308" width="54" height="2.7692308"/>
    <rect y="8.3076923" width="54" height="2.7692308"/>
    <rect y="13.8461538" width="54" height="2.7692308"/>
    <rect y="19.3846154" width="54" height="2.7692308"/>
    <rect y="24.9230769" width="54" height="2.7692308"/>
    <rect y="30.4615385" width="54" height="2.7692308"/>
  </g>
  <rect width="21.6" height="19.2" fill="#3c3b6e"/>
  <g fill="#fff">
    <g transform="translate(0,1.0666667)">
      <use href="#star" transform="translate(1.8,0)"/>
      <use href="#star" transform="translate(5.4,0)"/>
      <use href="#star" transform="translate(9,0)"/>
      <use href="#star" transform="translate(12.6,0)"/>
      <use href="#star" transform="translate(16.2,0)"/>
      <use href="#star" transform="translate(19.8,0)"/>
    </g>
    <g transform="translate(0,3.2)">
      <use href="#star" transform="translate(3.6,0)"/>
      <use href="#star" transform="translate(7.2,0)"/>
      <use href="#star" transform="translate(10.8,0)"/>
      <use href="#star" transform="translate(14.4,0)"/>
      <use href="#star" transform="translate(18,0)"/>
    </g>
    <g transform="translate(0,5.3333333)">
      <use href="#star" transform="translate(1.8,0)"/>
      <use href="#star" transform="translate(5.4,0)"/>
      <use href="#star" transform="translate(9,0)"/>
      <use href="#star" transform="translate(12.6,0)"/>
      <use href="#star" transform="translate(16.2,0)"/>
      <use href="#star" transform="translate(19.8,0)"/>
    </g>
    <g transform="translate(0,7.4666667)">
      <use href="#star" transform="translate(3.6,0)"/>
      <use href="#star" transform="translate(7.2,0)"/>
      <use href="#star" transform="translate(10.8,0)"/>
      <use href="#star" transform="translate(14.4,0)"/>
      <use href="#star" transform="translate(18,0)"/>
    </g>
    <g transform="translate(0,9.6)">
      <use href="#star" transform="translate(1.8,0)"/>
      <use href="#star" transform="translate(5.4,0)"/>
      <use href="#star" transform="translate(9,0)"/>
      <use href="#star" transform="translate(12.6,0)"/>
      <use href="#star" transform="translate(16.2,0)"/>
      <use href="#star" transform="translate(19.8,0)"/>
    </g>
    <g transform="translate(0,11.7333333)">
      <use href="#star" transform="translate(3.6,0)"/>
      <use href="#star" transform="translate(7.2,0)"/>
      <use href="#star" transform="translate(10.8,0)"/>
      <use href="#star" transform="translate(14.4,0)"/>
      <use href="#star" transform="translate(18,0)"/>
    </g>
    <g transform="translate(0,13.8666667)">
      <use href="#star" transform="translate(1.8,0)"/>
      <use href="#star" transform="translate(5.4,0)"/>
      <use href="#star" transform="translate(9,0)"/>
      <use href="#star" transform="translate(12.6,0)"/>
      <use href="#star" transform="translate(16.2,0)"/>
      <use href="#star" transform="translate(19.8,0)"/>
    </g>
    <g transform="translate(0,16)">
      <use href="#star" transform="translate(3.6,0)"/>
      <use href="#star" transform="translate(7.2,0)"/>
      <use href="#star" transform="translate(10.8,0)"/>
      <use href="#star" transform="translate(14.4,0)"/>
      <use href="#star" transform="translate(18,0)"/>
    </g>
    <g transform="translate(0,18.1333333)">
      <use href="#star" transform="translate(1.8,0)"/>
      <use href="#star" transform="translate(5.4,0)"/>
      <use href="#star" transform="translate(9,0)"/>
      <use href="#star" transform="translate(12.6,0)"/>
      <use href="#star" transform="translate(16.2,0)"/>
      <use href="#star" transform="translate(19.8,0)"/>
    </g>
  </g>
</svg>
