<svg xmlns="http://www.w3.org/2000/svg" viewBox="0 0 64 64">
  <rect width="64" height="64" rx="12" fill="#bd081c"/>
  <path d="M30 47C28.4 46.4 27.2 45.4 26.4 44.3C25.5 46.8 24.6 49.3 24.6 49.3L22.3 48.6C22.3 48.6 23.7 43.3 24.4 41.1C23.6 39.7 23 37.9 23 35.5C23 30 27 25 33.9 25C39.4 25 42.9 28.5 42.9 33.2C42.9 38.8 39.9 43.4 35 43.4C33.2 43.4 31.7 42.5 31.1 41.2C31.1 41.2 29.7 46.4 29.5 47.1C29.5 47.1 30.1 47.3 30 47ZM29.8 35.4C29.8 38.4 31.8 40.3 34.1 40.3C37.1 40.3 39.3 37.2 39.3 33.6C39.3 30.6 37.4 28.6 34.7 28.6C31.8 28.6 29.8 31.7 29.8 35.4Z" fill="#fff"/>
</svg>
