<svg xmlns="http://www.w3.org/2000/svg" viewBox="0 0 64 64">
  <rect width="64" height="64" rx="12" fill="#000000"/>
  <path d="M40 15.5c2.1 1.8 4.7 3 7.6 3.2v7.4c-2.7-.1-5.2-.8-7.6-1.9v15.2c0 7.3-5.9 11.4-11.3 11.4-5.5 0-10.7-3.9-10.7-10.6 0-6.5 4.8-10.6 10.7-10.6 1 0 2 .1 3 .4v7.1a4.6 4.6 0 0 0-2.8-.9c-2.2 0-4 1.5-4 3.9 0 2.3 1.6 3.9 4 3.9s4.5-1.8 4.5-4.7V15.5h6.6Z" fill="#ffffff"/>
  <path d="M32.3 22.6c1 0 2 .1 3 .4v-3.6c-1.1-.2-2.1-.3-3-.3-6 0-10.7 4.1-10.7 10.6 0 2.4.6 4.4 1.8 6-1.4 1.5-2.1 3.4-2.1 5.6 0 6.7 5.2 10.6 10.7 10.6 5.4 0 11.3-4.1 11.3-11.4V23.7c2.4 1.1 4.9 1.8 7.6 1.9V20c-2.9-.2-5.5-1.3-7.6-3.2v-1.3h-6.6V33c0 2.9-2.1 4.7-4.5 4.7s-4-1.6-4-3.9c0-2.4 1.8-3.9 4-3.9.9 0 1.8.3 2.8.9v-7.1c-1-.3-2-.4-3-.4-5.9 0-10.7 4.1-10.7 10.6 0 2.4.6 4.4 1.8 6-1.4 1.5-2.1 3.4-2.1 5.6 0 6.7 5.2 10.6 10.7 10.6 5.4 0 11.3-4.1 11.3-11.4V23.7c2.4 1.1 4.9 1.8 7.6 1.9V18.7c-2.9-.2-5.4-1.4-7.6-3.2V14h-6.6v11.9c-1-.3-2-.4-3-.4-5.9 0-10.7 4.1-10.7 10.6 0 2.4.6 4.4 1.8 6-1.4 1.5-2.1 3.4-2.1 5.6 0 6.7 5.2 10.6 10.7 10.6 5.4 0 11.3-4.1 11.3-11.4V23.7c2.4 1.1 4.9 1.8 7.6 1.9V20c-2.9-.2-5.5-1.3-7.6-3.2V14h-6.6v8.6c-1-.3-2-.4-3-.4-5.9 0-10.7 4.1-10.7 10.6 0 2.4.6 4.4 1.8 6-1.4 1.5-2.1 3.4-2.1 5.6 0 6.7 5.2 10.6 10.7 10.6 5.4 0 11.3-4.1 11.3-11.4V23.7c2.4 1.1 4.9 1.8 7.6 1.9V20c-2.9-.2-5.4-1.3-7.6-3.2V14h-6.6v8.6c-1-.3-2-.4-3-.4Z" fill="#ee1d52" opacity="0.2"/>
</svg>
