<svg xmlns="http://www.w3.org/2000/svg" viewBox="0 0 64 64">
  <rect width="64" height="64" rx="12" fill="#4c75a3"/>
  <path d="M52 44.5C51.2 42.6 47.8 37.7 47.7 37.6C46.9 36.3 46.9 35.5 48.1 33.9C48.1 33.9 50.3 31.2 51.2 29.4C51.7 28.3 51.5 27.6 50 27.6H44.6C42.9 27.6 42.2 28.5 41.9 29.1C41.9 29.1 40.6 31.9 39.1 34.2C38 35.8 37.2 36.2 36.6 36.2C36 36.2 35.8 35.8 35.8 34.7V27.6C35.8 26 35.3 25 33.2 25H26.3C25 25 24.2 25.9 24.2 26.7C24.2 28.2 26.5 28.4 26.8 34.4C26.8 34.9 26.1 36.6 24.8 34.8C23.4 32.9 21 28.3 21 28.3C20.3 27 19.6 27 18.2 27H13.2C11.8 27 11.4 27.6 11.4 28.6C11.4 30.1 13.4 34.8 18 40.9C21.2 44.9 25.7 47 29.4 47C31.9 47 32.2 46.3 32.2 44.8V41.7C32.2 40.5 32.7 40 33.5 40C34.2 40 35.1 40.4 36.7 42C39 44.2 40.9 45.3 42.8 45.3H49.4C51.4 45.3 52.4 44.9 52 44.5Z" fill="#fff"/>
</svg>
