<svg xmlns="http://www.w3.org/2000/svg" viewBox="0 0 640 360" preserveAspectRatio="xMidYMid slice">
  <defs>
    <linearGradient id="gradC" x1="0" y1="0" x2="1" y2="1">
      <stop offset="0%" stop-color="#b71c1c"/>
      <stop offset="100%" stop-color="#7f0000"/>
    </linearGradient>
  </defs>
  <rect width="640" height="360" fill="#330000"/>
  <rect x="140" y="90" width="360" height="220" rx="40" fill="url(#gradC)"/>
  <path d="M320 130C270 130 228 168 228 220C228 275 278 310 320 310C362 310 412 276 412 222H348C348 240 334 254 318 254C296 254 280 234 280 212C280 190 296 170 318 170C332 170 345 180 351 194H412C404 160 360 130 320 130Z" fill="#fff"/>
  <text x="320" y="205" text-anchor="middle" font-family="'Arial Black', sans-serif" font-size="56" fill="#fff">CUMMINS</text>
</svg>
