<svg xmlns="http://www.w3.org/2000/svg" viewBox="0 0 1920 640" preserveAspectRatio="xMidYMid slice">
  <defs>
    <linearGradient id="constructionGlow" x1="0" y1="0" x2="0" y2="1">
      <stop offset="0%" stop-color="#ffe7a1"/>
      <stop offset="55%" stop-color="#f4c542"/>
      <stop offset="100%" stop-color="#1f1f23"/>
    </linearGradient>
    <linearGradient id="craneLight" x1="0" y1="0" x2="1" y2="1">
      <stop offset="0%" stop-color="#f7d268"/>
      <stop offset="100%" stop-color="#d98d1c"/>
    </linearGradient>
  </defs>
  <rect width="1920" height="640" fill="url(#constructionGlow)"/>
  <path d="M0 410C220 360 420 400 620 360C880 308 1120 380 1380 332C1600 292 1780 320 1920 300V640H0Z" fill="#f5c400" opacity="0.32"/>
  <path d="M0 470C240 430 420 470 640 440C900 404 1160 460 1440 424C1640 398 1800 420 1920 402V640H0Z" fill="#201d1b" opacity="0.55"/>
  <g opacity="0.85">
    <rect x="230" y="250" width="320" height="140" rx="24" fill="url(#craneLight)"/>
    <rect x="330" y="220" width="180" height="28" rx="10" fill="#fff0c2"/>
    <circle cx="300" cy="420" r="42" fill="#121212"/>
    <circle cx="480" cy="420" r="42" fill="#121212"/>
  </g>
  <g opacity="0.72">
    <rect x="760" y="280" width="280" height="120" rx="20" fill="url(#craneLight)"/>
    <rect x="860" y="250" width="160" height="24" rx="10" fill="#fff0c2"/>
    <circle cx="830" cy="428" r="38" fill="#111"/>
    <circle cx="1010" cy="428" r="38" fill="#111"/>
  </g>
  <g opacity="0.66">
    <rect x="1270" y="300" width="320" height="124" rx="22" fill="url(#craneLight)"/>
    <rect x="1370" y="270" width="170" height="26" rx="9" fill="#fff0c2"/>
    <circle cx="1340" cy="434" r="40" fill="#111"/>
    <circle cx="1520" cy="434" r="40" fill="#111"/>
  </g>
</svg>
