<svg width="150" height="44" viewBox="0 0 150 44" xmlns="http://www.w3.org/2000/svg">
  <rect width="150" height="44" fill="#111" rx="4"/>
  <path d="M14 31L24.5 12H32L42.5 31H35.2L33 26.8H22L19.9 31H14Z" fill="#f1c40f"/>
  <path d="M50 12H67.5C74.3 12 79 16.1 79 22.3C79 28.4 74.4 32.9 67.5 32.9H50V12ZM58.1 18.3V26.5H66.5C69.4 26.5 71.1 24.7 71.1 22.4C71.1 19.9 69.5 18.3 66.5 18.3H58.1Z" fill="#fff"/>
  <path d="M88.7 12H112.4L108.9 17.9H97.1V20.5H110.5L107.1 26.3H97.1V31.1L88.7 31V12Z" fill="#fff"/>
  <rect x="120" y="12" width="17" height="19" rx="2" fill="#f1c40f"/>
  <path d="M126 26V17H128.9L133 22.3V17H136V26H133.2L129 20.6V26H126Z" fill="#111"/>
</svg>
